HIERARCHY
ROOT Hips
{
	OFFSET 0.00000 0.00000 0.00000
	CHANNELS 6 Xposition Yposition Zposition Zrotation Yrotation Xrotation 
	JOINT LHipJoint
	{
		OFFSET 0 0 0
		CHANNELS 3 Zrotation Yrotation Xrotation
		JOINT LeftHip
		{
			OFFSET 1.28858 -1.83292 1.03970
			CHANNELS 3 Zrotation Yrotation Xrotation
			JOINT LeftKnee
			{
				OFFSET 2.47846 -6.80952 0.00000
				CHANNELS 3 Zrotation Yrotation Xrotation
				JOINT LeftAnkle
				{
					OFFSET 2.75274 -7.56311 0.00000
					CHANNELS 3 Zrotation Yrotation Xrotation
					JOINT LeftToe
					{
						OFFSET 0.12848 -0.35301 1.68223
						CHANNELS 3 Zrotation Yrotation Xrotation
						End Site
						{
							OFFSET 0.00000 -0.00000 0.87311
						}
					}
				}
			}
		}
	}
	JOINT RHipJoint
	{
		OFFSET 0 0 0
		CHANNELS 3 Zrotation Yrotation Xrotation
		JOINT RightHip
		{
			OFFSET -1.31183 -1.83292 1.03970
			CHANNELS 3 Zrotation Yrotation Xrotation
			JOINT RightKnee
			{
				OFFSET -2.44740 -6.72417 0.00000
				CHANNELS 3 Zrotation Yrotation Xrotation
				JOINT RightAnkle
				{
					OFFSET -2.67343 -7.34519 0.00000
					CHANNELS 3 Zrotation Yrotation Xrotation
					JOINT RightToe
					{
						OFFSET -0.16914 -0.46471 1.77626
						CHANNELS 3 Zrotation Yrotation Xrotation
						End Site
						{
							OFFSET -0.00000 -0.00000 0.92777
						}
					}
				}
			}
		}
	}
	JOINT lowerback
	{
		OFFSET 0 0 0
		CHANNELS 3 Zrotation Yrotation Xrotation
		JOINT Chest
		{
			OFFSET 0.01249 2.14252 0.03842
			CHANNELS 3 Zrotation Yrotation Xrotation
			JOINT Chest2
			{
				OFFSET -0.02957 2.14199 -0.03751
				CHANNELS 3 Zrotation Yrotation Xrotation
				JOINT lowerneck
				{
					OFFSET 0 0 0
					CHANNELS 3 Zrotation Yrotation Xrotation
					JOINT Neck
					{
						OFFSET -0.01678 1.65709 -0.05476
						CHANNELS 3 Zrotation Yrotation Xrotation
						JOINT Head
						{
							OFFSET 0.07912 1.58331 -0.11843
							CHANNELS 3 Zrotation Yrotation Xrotation
							End Site
							{
								OFFSET 0.03298 1.73940 -0.04271
							}
						}
					}
				}
				JOINT LeftCollar
				{
					OFFSET 0 0 0
					CHANNELS 3 Zrotation Yrotation Xrotation
					JOINT LeftShoulder
					{
						OFFSET 3.39556 1.16496 0.08673
CHANNELS 3 Zrotation Xrotation Yrotation
						JOINT LeftElbow
						{
OFFSET 0 -5.239100 -0.000000
CHANNELS 3 Zrotation Xrotation Yrotation
							JOINT LeftWrist
							{
OFFSET 0 -3.314670 0.000000
CHANNELS 3 Zrotation Xrotation Yrotation
								JOINT lhand
								{
									OFFSET 0 0 0
CHANNELS 3 Zrotation Xrotation Yrotation
									JOINT LFingers
									{
OFFSET 0 -0.965900 0.000000
CHANNELS 3 Zrotation Xrotation Yrotation
										End Site
										{
OFFSET 0 -0.778730 0.000000
										}
									}
								}
								JOINT LThumb
								{
OFFSET 0 0.000000 0.000000
CHANNELS 3 Zrotation Xrotation Yrotation
									End Site
									{
OFFSET 0 -0.790620 0.790620
									}
								}
							}
						}
					}
				}
				JOINT RightCollar
				{
					OFFSET 0 0 0
					CHANNELS 3 Zrotation Yrotation Xrotation
					JOINT RightShoulder
					{
						OFFSET -3.27193 1.31331 0.33940
CHANNELS 3 Zrotation Xrotation Yrotation
						JOINT RightElbow
						{
OFFSET 0 -5.302520 0.000000
CHANNELS 3 Zrotation Xrotation Yrotation
							JOINT RightWrist
							{
OFFSET 0 -3.678750 0.000000
CHANNELS 3 Zrotation Xrotation Yrotation
								JOINT rhand
								{
									OFFSET 0 0 0
CHANNELS 3 Zrotation Xrotation Yrotation
									JOINT RFingers
									{
OFFSET 0 -0.594810 0.000000
CHANNELS 3 Zrotation Xrotation Yrotation
										End Site
										{
OFFSET 0 -0.479550 0.000000
										}
									}
								}
								JOINT RThumb
								{
OFFSET 0 0.000000 0.000000
CHANNELS 3 Zrotation Xrotation Yrotation
									End Site
									{
OFFSET 0 -0.486870 0.486870
									}
								}
							}
						}
					}
				}
			}
		}
	}
}
MOTION
Frames: 5
Frame Time: 0.008333333333333333
10.801142 19.643177 -3.706135 -4.538584 9.837150 10.634301 0.000000 0.000000 0.000000 -4.155589 -6.729781 -12.563579 15.835351 19.571802 77.736686 0.774887 1.332773 16.262364 0.335944 3.721093 10.293703 0.000000 0.000000 0.000000 22.860890 8.326388 -38.425636 -5.856875 -14.287633 44.403361 -3.090943 10.757114 -31.749486 -0.032465 1.008531 -2.773537 7.666493 -1.127563 1.305794 2.448230 -1.503758 2.253159 -1.762601 -0.649211 1.469009 -1.547917 -2.149246 3.128989 6.546711 -2.401749 -9.346277 2.545239 -1.399263 -3.493881 0.000000 0.000000 0.000000 9.794561 -2.936433 -19.803893 21.318090 -32.197734 6.218608 25.006846 -168.767612 -15.605668 0.000000 0.000000 0.000000 -7.125000 0.000000 0.000000 -2.547485 47.093090 0.131592 0.000000 0.000000 0.000000 -4.898615 6.304467 10.965174 -11.456450 -18.984338 -1.921894 1.488599 10.649421 48.971143 0.000000 0.000000 0.000000 7.125000 0.000000 0.000000 63.205143 69.281108 -42.193129
10.786048 19.673471 -3.520637 -4.859216 9.348836 10.558189 0.000000 0.000000 0.000000 -3.541991 -6.802930 -14.720961 16.870926 19.757364 80.813798 0.700392 -0.614474 16.070003 0.275466 3.371340 9.314688 0.000000 0.000000 0.000000 23.532099 8.468645 -37.192947 -5.687672 -14.118193 43.713937 -3.114387 11.149925 -31.870723 -0.018387 0.799275 -2.197059 7.909003 -0.895665 1.385996 2.542153 -1.187277 2.247368 -1.799867 -0.489560 1.444071 -1.490177 -2.223060 3.239290 6.452607 -2.505039 -9.359769 2.509207 -1.450648 -3.515759 0.000000 0.000000 0.000000 10.091013 -2.271604 -19.474234 21.251160 -32.120368 6.182936 25.157050 -168.150499 -15.626327 0.000000 0.000000 0.000000 -7.125000 0.000000 0.000000 -2.408080 47.137042 0.127061 0.000000 0.000000 0.000000 -5.200971 5.890409 11.822681 -11.597213 -19.197762 -1.967864 1.958382 10.125223 49.226969 0.000000 0.000000 0.000000 7.125000 0.000000 0.000000 64.147621 69.239327 -42.940475
10.772575 19.703839 -3.331114 -5.133017 8.860907 10.513656 0.000000 0.000000 0.000000 -3.000079 -6.887529 -16.908808 17.842851 19.882789 83.679993 0.610186 -2.253983 15.757245 0.234712 3.117122 8.605006 0.000000 0.000000 0.000000 24.177201 8.546267 -36.024712 -5.527757 -13.954084 43.054809 -3.190239 10.599887 -32.272819 -0.093587 1.851410 -5.098624 8.136104 -0.655109 1.357805 2.598187 -0.872453 2.272020 -1.869528 -0.326951 1.512755 -1.414867 -2.262172 3.124855 6.397627 -2.566361 -9.176524 2.470850 -1.477326 -3.428177 0.000000 0.000000 0.000000 10.456916 -1.544557 -19.139249 21.205855 -32.067861 6.158824 25.275574 -167.686959 -15.583354 0.000000 0.000000 0.000000 -7.125000 0.000000 0.000000 -2.287757 47.107507 0.119068 0.000000 0.000000 0.000000 -5.483291 5.355852 12.675549 -11.715884 -19.377103 -2.007074 2.528345 9.596557 49.632844 0.000000 0.000000 0.000000 7.125000 0.000000 0.000000 65.512080 69.226923 -44.090650
10.764754 19.736705 -3.136985 -5.380874 8.423075 10.443316 0.000000 0.000000 0.000000 -2.549712 -7.002971 -19.038083 18.745807 19.957754 86.329991 0.517153 -3.533293 15.342511 0.200109 2.876085 7.934325 0.000000 0.000000 0.000000 24.768385 8.454422 -34.824861 -5.372330 -13.790750 42.406497 -3.256780 10.481655 -32.621327 -0.152817 2.518864 -6.941870 8.404000 -0.457087 1.335917 2.641373 -0.611905 2.275098 -1.974000 -0.192030 1.551900 -1.629730 -2.390453 2.828513 6.523850 -2.759829 -8.810601 2.540814 -1.561638 -3.232513 0.000000 0.000000 0.000000 10.814172 -0.788065 -18.648799 21.121900 -31.970280 6.114348 25.484635 -167.450836 -15.523964 0.000000 0.000000 0.000000 -7.125000 0.000000 0.000000 -2.078452 47.073033 0.106380 0.000000 0.000000 0.000000 -5.756718 4.923651 13.552527 -11.955552 -19.737467 -2.087572 2.623672 9.396182 50.012210 0.000000 0.000000 0.000000 7.125000 0.000000 0.000000 66.485463 69.356703 -45.088147
10.759551 19.773059 -2.941090 -5.634850 7.963750 10.382490 0.000000 0.000000 0.000000 -2.133772 -7.061648 -21.218309 19.583764 19.992046 88.782669 0.393221 -4.929364 14.700294 0.118018 2.147516 5.916131 0.000000 0.000000 0.000000 25.327535 8.346770 -33.611084 -5.220687 -13.627599 41.766603 -3.299494 10.914428 -32.838588 -0.165505 2.619819 -7.221965 8.709662 -0.277724 1.302536 2.674688 -0.377799 2.279908 -2.108729 -0.069180 1.598775 -1.837022 -2.451063 2.712071 6.545857 -2.859256 -8.670354 2.582073 -1.601495 -3.155128 0.000000 0.000000 0.000000 11.108407 -0.019387 -17.804552 21.017496 -31.848740 6.059181 25.810960 -167.309885 -15.324774 0.000000 0.000000 0.000000 -7.125000 0.000000 0.000000 -1.735149 46.902464 0.082189 0.000000 0.000000 0.000000 -6.018058 4.503896 14.428544 -12.222584 -20.137447 -2.178413 1.398513 10.247088 50.013325 0.000000 0.000000 0.000000 7.125000 0.000000 0.000000 65.631927 69.772459 -44.853362
